<svg xmlns="http://www.w3.org/2000/svg" width="120" height="120" viewBox="0 0 120 120" fill="none">
  <rect width="120" height="120" rx="60" fill="#F0F4F8"/>
  <path d="M60 30C43.43 30 30 43.43 30 60C30 76.57 43.43 90 60 90C76.57 90 90 76.57 90 60C90 43.43 76.57 30 60 30ZM60 40C65.52 40 70 44.48 70 50C70 55.52 65.52 60 60 60C54.48 60 50 55.52 50 50C50 44.48 54.48 40 60 40ZM60 82C52.5 82 45.9 78.1 42 72.2C42.1 66.1 54 62.8 60 62.8C66 62.8 77.9 66.1 78 72.2C74.1 78.1 67.5 82 60 82Z" fill="#CBD5E0"/>
</svg>
